<svg width="400" height="400" viewBox="0 0 400 400" fill="none" xmlns="http://www.w3.org/2000/svg">
<rect width="400" height="400" fill="#F97316"/>
<path d="M206.3 312.7C179.1 312.7 157.4 306.5 141.2 294.1C125.2 281.5 115.8 263.8 113 241H150.5C152.3 254.2 158.2 264.5 168.2 271.9C178.2 279.1 191.3 282.7 207.5 282.7C220.9 282.7 231.1 280.3 238.1 275.5C245.3 270.5 248.9 263.6 248.9 254.8C248.9 247 246.7 240.7 242.3 235.9C237.9 231.1 230.5 227.2 220.1 224.2L181.1 212.5C161.3 206.5 146.7 198.6 137.3 188.8C128.1 179 123.5 166.7 123.5 151.9C123.5 139.5 126.7 128.7 133.1 119.5C139.5 110.3 148.5 103.2 160.1 98.2C171.9 93.2 185.6 90.7 201.2 90.7C225.2 90.7 244.3 96.6 258.5 108.4C272.9 120 281.1 135.8 283.1 155.8H245.6C243.4 143.8 238.4 135 230.6 129.4C222.8 123.6 212.3 120.7 199.1 120.7C187.5 120.7 178.3 123 171.5 127.6C164.7 132.2 161.3 138.5 161.3 146.5C161.3 153.1 163.3 158.7 167.3 163.3C171.5 167.9 179.2 171.9 190.4 175.3L230 187.3C249.8 193.1 264.2 201 273.2 211C282.2 221 286.7 233.7 286.7 249.1C286.7 269.5 279.6 285.2 265.4 296.2C251.4 307.2 231.7 312.7 206.3 312.7Z" fill="white"/>
</svg>
